# xmcd
#
# Track frame offsets:
#	150
#	18628
#	28470
#	46183
#	66243
#	82233
#	99263
#	111955
#	134853
#	148043
#	161140
#	183135
#	197283
#	220510
#
# Disc length: 3193 seconds
#
# Revision: 1
# Processed by: cddbd v1.5.1PL0 Copyright (c) Steve Scherf et al.
# Submitted via: CDex 1.50Beta5
#
DISCID=cc0c770e
DTITLE=trans:bound - DEEPER
DYEAR=2001
DGENRE=Rock
TTITLE0=FAVORITE MY☆
TTITLE1=CHOCOLATE(How do you save me!?)
TTITLE2=灰
TTITLE3=スィートピー
TTITLE4=リセット
TTITLE5=tattvamasi
TTITLE6=Cynical language
TTITLE7=アドレナリン ドライヴ(deeper mix drive)
TTITLE8=Cell Block
TTITLE9=ハイソスープ
TTITLE10=vacation
TTITLE11=Finally
TTITLE12=PERFECT FREEDOM
TTITLE13=See
EXTD=
EXTT0=
EXTT1=
EXTT2=
EXTT3=
EXTT4=
EXTT5=
EXTT6=
EXTT7=
EXTT8=
EXTT9=
EXTT10=
EXTT11=
EXTT12=
EXTT13=
PLAYORDER=
